<svg xmlns="http://www.w3.org/2000/svg" version="1.1" xmlns:xlink="http://www.w3.org/1999/xlink" xmlns:svgjs="http://svgjs.dev/svgjs" width="1000" height="348" viewBox="0 0 1000 348"><g transform="matrix(1,0,0,1,-0.6060606060606233,0.2069190560490881)"><svg viewBox="0 0 396 138" data-background-color="#ffffff" preserveAspectRatio="xMidYMid meet" height="348" width="1000" xmlns="http://www.w3.org/2000/svg" xmlns:xlink="http://www.w3.org/1999/xlink"><g id="tight-bounds" transform="matrix(1,0,0,1,0.2400000000000091,-0.08205410843325467)"><svg viewBox="0 0 395.52 138.16410821686654" height="138.16410821686654" width="395.52"><g><svg viewBox="0 0 699.7294214460683 244.43135999999998" height="138.16410821686654" width="395.52"><g><rect width="9.586574085809431" height="215.185994731528" x="269.52710368012936" y="14.622682634235986" fill="#0074d9" opacity="1" stroke-width="0" stroke="transparent" fill-opacity="1" class="rect-r$-0" data-fill-palette-color="primary" rx="1%" id="r$-0" data-palette-color="#0074d9"></rect></g><g transform="matrix(1,0,0,1,304.2094214460682,32.55484886186332)"><svg viewBox="0 0 395.52 179.32166227627334" height="179.32166227627334" width="395.52"><g id="textblocktransform"><svg viewBox="0 0 395.52 179.32166227627334" height="179.32166227627334" width="395.52" id="textblock"><g><svg viewBox="0 0 395.52 106.3036635665184" height="106.3036635665184" width="395.52"><g transform="matrix(1,0,0,1,0,0)"><svg width="395.52" viewBox="2.1 -38.01 181.11 48.68" height="106.3036635665184" data-palette-color="#0074d9"><path d="M23.75-11.84L31.08-11.84Q30.66-6.1 26.84-2.81 23.02 0.49 16.77 0.49L16.77 0.49Q9.94 0.49 6.02-4.11 2.1-8.72 2.1-16.75L2.1-16.75 2.1-18.92Q2.1-24.05 3.91-27.95 5.71-31.86 9.07-33.95 12.43-36.04 16.87-36.04L16.87-36.04Q23.02-36.04 26.78-32.74 30.54-29.44 31.13-23.49L31.13-23.49 23.8-23.49Q23.54-26.93 21.89-28.48 20.24-30.03 16.87-30.03L16.87-30.03Q13.21-30.03 11.39-27.4 9.57-24.78 9.52-19.26L9.52-19.26 9.52-16.58Q9.52-10.82 11.27-8.15 13.01-5.49 16.77-5.49L16.77-5.49Q20.17-5.49 21.84-7.04 23.51-8.59 23.75-11.84L23.75-11.84ZM42.87-37.5L42.87 0 35.79 0 35.79-37.5 42.87-37.5ZM47.58-13.13L47.58-13.45Q47.58-17.38 49.09-20.46 50.61-23.54 53.45-25.22 56.29-26.9 60.05-26.9L60.05-26.9Q65.4-26.9 68.78-23.63 72.16-20.36 72.55-14.75L72.55-14.75 72.6-12.94Q72.6-6.86 69.21-3.19 65.82 0.49 60.1 0.49 54.39 0.49 50.98-3.17 47.58-6.84 47.58-13.13L47.58-13.13ZM54.63-12.94L54.63-12.94Q54.63-9.18 56.05-7.19 57.47-5.2 60.1-5.2L60.1-5.2Q62.67-5.2 64.11-7.17 65.55-9.13 65.55-13.45L65.55-13.45Q65.55-17.14 64.11-19.17 62.67-21.19 60.05-21.19L60.05-21.19Q57.47-21.19 56.05-19.18 54.63-17.16 54.63-12.94ZM87.93-5.2L87.93-5.2Q89.89-5.2 91.11-6.27 92.33-7.35 92.38-9.13L92.38-9.13 98.99-9.13Q98.97-6.45 97.53-4.21 96.09-1.98 93.58-0.74 91.08 0.49 88.05 0.49L88.05 0.49Q82.39 0.49 79.12-3.11 75.85-6.71 75.85-13.06L75.85-13.06 75.85-13.53Q75.85-19.63 79.09-23.27 82.34-26.9 88.01-26.9L88.01-26.9Q92.96-26.9 95.95-24.08 98.94-21.26 98.99-16.58L98.99-16.58 92.38-16.58Q92.33-18.63 91.11-19.91 89.89-21.19 87.88-21.19L87.88-21.19Q85.42-21.19 84.16-19.4 82.9-17.6 82.9-13.57L82.9-13.57 82.9-12.84Q82.9-8.76 84.15-6.98 85.39-5.2 87.93-5.2ZM119.4 0L112.61-10.6 110.07-8.06 110.07 0 103.02 0 103.02-37.5 110.07-37.5 110.07-16.72 111.44-18.48 118.2-26.42 126.67-26.42 117.13-15.41 127.5 0 119.4 0ZM137.17-26.42L137.17 0 130.09 0 130.09-26.42 137.17-26.42ZM129.68-33.25L129.68-33.25Q129.68-34.84 130.74-35.86 131.8-36.89 133.63-36.89L133.63-36.89Q135.44-36.89 136.51-35.86 137.59-34.84 137.59-33.25L137.59-33.25Q137.59-31.64 136.5-30.62 135.41-29.59 133.63-29.59 131.85-29.59 130.76-30.62 129.68-31.64 129.68-33.25ZM151.99 0L144.91 0 144.91-21.24 140.98-21.24 140.98-26.42 144.91-26.42 144.91-28.66Q144.91-33.11 147.46-35.56 150.01-38.01 154.6-38.01L154.6-38.01Q156.06-38.01 158.19-37.52L158.19-37.52 158.11-32.06Q157.24-32.28 155.97-32.28L155.97-32.28Q151.99-32.28 151.99-28.54L151.99-28.54 151.99-26.42 157.24-26.42 157.24-21.24 151.99-21.24 151.99 0ZM165.85-26.42L170.76-9.99 175.64-26.42 183.21-26.42 172.59 4.1 172 5.49Q169.64 10.67 164.19 10.67L164.19 10.67Q162.65 10.67 161.07 10.21L161.07 10.21 161.07 4.86 162.14 4.88Q164.14 4.88 165.13 4.27 166.12 3.66 166.68 2.25L166.68 2.25 167.51 0.07 158.26-26.42 165.85-26.42Z" opacity="1" transform="matrix(1,0,0,1,0,0)" fill="#0074d9" class="wordmark-text-0" data-fill-palette-color="primary" id="text-0"></path></svg></g></svg></g><g transform="matrix(1,0,0,1,0,131.3994072466478)"><svg viewBox="0 0 232.209792 47.92225502962555" height="47.92225502962555" width="232.209792"><g transform="matrix(1,0,0,1,0,0)"><svg width="232.209792" viewBox="1.44 -36.04376541232 177.005305782608 36.53376541232" height="47.92225502962555" data-palette-color="#77d4fc"><path d="M24.49-20.26L23.83-16.43 8.89-16.43 6.69-3.83 24.07-3.83 23.39 0 1.44 0 7.62-35.55 29.32-35.55 28.64-31.69 11.52-31.69 9.55-20.26 24.49-20.26ZM37.89-35.55L44.06-21.95 54.44-35.55 60.1-35.55 46.26-17.7 54.54 0 49.39 0 43.09-13.84 32.39 0 26.73 0 40.87-18.14 32.81-35.55 37.89-35.55ZM89.91-35.55L89.23-31.69 78.17-31.69 72.68 0 68.11 0 73.6-31.69 62.54-31.69 63.23-35.55 89.91-35.55ZM109.32 0L104.34-14.38 96.14-14.38 93.64 0 89.03 0 95.21-35.55 105.9-35.52Q111.49-35.5 114.42-32.69 117.35-29.88 116.89-25.05L116.89-25.05Q116.62-21.7 114.46-19.17 112.3-16.63 108.71-15.33L108.71-15.33 114.23-0.32 114.2 0 109.32 0ZM99.14-31.69L96.79-18.21 103.53-18.19Q107.05-18.19 109.47-20.06 111.88-21.92 112.3-25.05L112.3-25.05Q112.66-28.1 111.08-29.83 109.49-31.57 106.24-31.67L106.24-31.67 99.14-31.69ZM141.59 0L139.91-9.28 125.5-9.28 120.64 0 115.74 0 135.05-35.55 139.08-35.55 146.11 0 141.59 0ZM136.27-29.71L127.53-13.13 139.22-13.13 136.27-29.71ZM171.01-9.16L171.01-9.16Q171.55-13.06 166.96-14.87L166.96-14.87 162.73-16.41 161.32-17.02Q154.19-20.26 154.65-26.15L154.65-26.15Q154.89-29.1 156.68-31.37 158.46-33.64 161.4-34.88 164.34-36.11 167.66-36.04L167.66-36.04Q170.89-35.96 173.41-34.59 175.94-33.23 177.26-30.77 178.58-28.32 178.43-25.24L178.43-25.24 173.82-25.27Q174.06-28.54 172.35-30.33 170.64-32.13 167.47-32.18L167.47-32.18Q164.12-32.23 161.88-30.62 159.63-29 159.29-26.22L159.29-26.22Q158.8-22.58 163.76-20.7L163.76-20.7 167.39-19.41 169.23-18.63Q176.11-15.45 175.6-9.2L175.6-9.2Q175.33-6.2 173.57-4.02 171.81-1.83 168.8-0.63 165.78 0.56 162.32 0.49L162.32 0.49Q158.97 0.46 156.2-0.94 153.43-2.34 151.99-4.79 150.55-7.23 150.72-10.33L150.72-10.33 155.31-10.3Q155.09-7.13 157.03-5.26 158.97-3.39 162.51-3.34 166.05-3.3 168.35-4.88 170.64-6.47 171.01-9.16Z" opacity="1" transform="matrix(1,0,0,1,0,0)" fill="#77d4fc" class="slogan-text-1" data-fill-palette-color="secondary" id="text-1"></path></svg></g></svg></g></svg></g></svg></g><g><svg viewBox="0 0 244.43135999999998 244.43135999999998" height="244.43135999999998" width="244.43135999999998"><g><svg xmlns="http://www.w3.org/2000/svg" xmlns:xlink="http://www.w3.org/1999/xlink" version="1.1" x="0" y="0" viewBox="10 10 80 80" enable-background="new 0 0 100 100" xml:space="preserve" height="244.43135999999998" width="244.43135999999998" class="icon-icon-0" data-fill-palette-color="accent" id="icon-0"><g fill="#03a9f4" data-fill-palette-color="accent"><path d="M50 90c22.057 0 40-17.943 40-40 0-22.056-17.943-40-40-40-22.056 0-40 17.944-40 40C10 72.057 27.944 90 50 90zM50 18c17.645 0 32 14.355 32 32 0 17.646-14.355 32-32 32S18 67.645 18 50 32.355 18 50 18z" fill="#03a9f4" data-fill-palette-color="accent"></path><path d="M46.079 50.784c0.022 0.113 0.065 0.219 0.098 0.329 0.04 0.14 0.073 0.282 0.129 0.418 0.053 0.128 0.126 0.244 0.192 0.364 0.059 0.108 0.106 0.221 0.176 0.324 0.134 0.2 0.288 0.385 0.455 0.557 0.016 0.017 0.026 0.036 0.042 0.053l16 16c1.562 1.562 4.094 1.562 5.656 0 1.562-1.563 1.562-4.095 0-5.657L54 48.343V32.25c0-2.209-1.791-4-4-4s-4 1.791-4 4v17.749C46 50.262 46.027 50.525 46.079 50.784z" fill="#03a9f4" data-fill-palette-color="accent"></path></g></svg></g></svg></g></svg></g><defs></defs></svg><rect width="395.52" height="138.16410821686654" fill="none" stroke="none" visibility="hidden"></rect></g></svg></g></svg>